<svg id="Layer_1" data-name="Layer 1" xmlns="http://www.w3.org/2000/svg" viewBox="0 0 131.29 84.41"><title>Logo</title><path d="M644.14,371.24a39.92,39.92,0,0,1-15.63-14.83,43.22,43.22,0,0,1,0-42.87,39.78,39.78,0,0,1,15.63-14.83,46.5,46.5,0,0,1,22.36-5.35A47,47,0,0,1,685.41,297a37.83,37.83,0,0,1,14.19,10.58l-12,11a25.72,25.72,0,0,0-20.23-9.42,26.93,26.93,0,0,0-13.34,3.27,23.33,23.33,0,0,0-9.13,9.14,28.75,28.75,0,0,0,0,26.67,23.3,23.3,0,0,0,9.13,9.13,26.83,26.83,0,0,0,13.34,3.28q12.06,0,20.23-9.54l12,11a37.17,37.17,0,0,1-14.25,10.69,47.2,47.2,0,0,1-19,3.68A46.25,46.25,0,0,1,644.14,371.24Z" transform="translate(-622.82 -293.36)"/><path d="M705.55,347.56l-11.27-10.68,33.19-39.4,20.43-1.09-31,37.56,37.22,42.68-21.45,1.14Z" transform="translate(-622.82 -293.36)"/></svg>