<svg id="Layer_1" data-name="Layer 1" xmlns="http://www.w3.org/2000/svg" viewBox="0 0 132.85 85.43"><defs><style>.cls-1{fill:none;stroke:#000;stroke-miterlimit:10;}</style></defs><path class="cls-1" d="M21.32,77.88A40,40,0,0,1,5.69,63.05a43.2,43.2,0,0,1,0-42.87A39.74,39.74,0,0,1,21.32,5.35,46.44,46.44,0,0,1,43.68,0,47,47,0,0,1,62.59,3.64,37.8,37.8,0,0,1,76.78,14.22l-12,11A25.73,25.73,0,0,0,44.55,15.8a27,27,0,0,0-13.34,3.27,23.33,23.33,0,0,0-9.13,9.14,28.77,28.77,0,0,0,0,26.67A23.3,23.3,0,0,0,31.21,64a26.88,26.88,0,0,0,13.34,3.28q12.06,0,20.23-9.54l12,11A37.12,37.12,0,0,1,62.53,79.44a47.1,47.1,0,0,1-19,3.68A46.27,46.27,0,0,1,21.32,77.88Z" transform="translate(0.5 0.51)"/><path class="cls-1" d="M82.73,54.2,71.46,43.52l33.19-39.4L125.08,3l-31,37.56L131.3,83.27l-21.45,1.14Z" transform="translate(0.5 0.51)"/></svg>